<?xml version="1.0" encoding="UTF-8" standalone="no"?>
<!-- Generator: Adobe Illustrator 15.0.2, SVG Export Plug-In  -->

<svg
   xmlns:dc="http://purl.org/dc/elements/1.1/"
   xmlns:cc="http://creativecommons.org/ns#"
   xmlns:rdf="http://www.w3.org/1999/02/22-rdf-syntax-ns#"
   xmlns:svg="http://www.w3.org/2000/svg"
   xmlns="http://www.w3.org/2000/svg"
   xmlns:sodipodi="http://sodipodi.sourceforge.net/DTD/sodipodi-0.dtd"
   xmlns:inkscape="http://www.inkscape.org/namespaces/inkscape"
   version="1.1"
   x="0px"
   y="0px"
   width="249px"
   height="118px"
   viewBox="-6.521 -21.299 249 118"
   overflow="visible"
   enable-background="new -6.521 -21.299 249 118"
   xml:space="preserve"
   id="svg2"
   inkscape:version="0.48.2 r9819"
   sodipodi:docname="cernbox-dark.svg"><metadata
   id="metadata36"><rdf:RDF><cc:Work
       rdf:about=""><dc:format>image/svg+xml</dc:format><dc:type
         rdf:resource="http://purl.org/dc/dcmitype/StillImage" /><dc:title></dc:title></cc:Work></rdf:RDF></metadata><sodipodi:namedview
   pagecolor="#ffffff"
   bordercolor="#666666"
   borderopacity="1"
   objecttolerance="10"
   gridtolerance="10"
   guidetolerance="10"
   inkscape:pageopacity="0"
   inkscape:pageshadow="2"
   inkscape:window-width="1336"
   inkscape:window-height="809"
   id="namedview34"
   showgrid="false"
   inkscape:zoom="1.4136546"
   inkscape:cx="-0.70738636"
   inkscape:cy="59"
   inkscape:window-x="0"
   inkscape:window-y="0"
   inkscape:window-maximized="0"
   inkscape:current-layer="svg2" />
<defs
   id="defs4">
</defs>
<polygon
   fill="#78B6E4"
   points="32.227,36.284 32.227,53.131 46.957,46.566 46.957,28.386 32.117,35.406 "
   id="polygon6" />
<path
   fill="#4267B1"
   d="M32.739,73.23C23.915,73.23,17,57.146,17,36.615S23.915,0,32.739,0s15.74,16.084,15.74,36.615  S41.563,73.23,32.739,73.23z M32.739,1.877c-7.512,0-13.858,15.907-13.858,34.738s6.347,34.737,13.858,34.737  c7.513,0,13.861-15.906,13.861-34.737S40.252,1.877,32.739,1.877z"
   id="path8" />
<path
   fill="#4267B1"
   d="M11.949,59.487c-5.425,0-9.212-1.596-10.948-4.616c-4.399-7.652,6.095-21.664,23.895-31.899  c10.047-5.779,20.751-9.23,28.635-9.23c5.425,0,9.213,1.596,10.95,4.617c2.171,3.777,0.783,9.218-3.912,15.319  c-4.521,5.881-11.617,11.769-19.981,16.577C30.537,56.036,19.835,59.487,11.949,59.487z M53.53,15.618  c-7.568,0-17.923,3.357-27.702,8.981c-16.32,9.387-26.943,22.82-23.2,29.338c1.749,3.035,6.033,3.673,9.321,3.673  c7.568,0,17.926-3.358,27.703-8.984c8.154-4.688,15.055-10.405,19.427-16.088c4.143-5.386,5.515-10.212,3.772-13.246  C61.104,16.257,56.816,15.618,53.53,15.618z"
   id="path10" />
<path
   fill="#4267B1"
   d="M53.531,59.487L53.531,59.487c-7.885,0-18.591-3.451-28.636-9.232C16.528,45.446,9.432,39.559,4.911,33.678  c-4.693-6.102-6.083-11.542-3.91-15.319c1.736-3.021,5.523-4.617,10.948-4.617c7.886,0,18.588,3.451,28.638,9.23  C58.384,33.207,68.879,47.219,64.48,54.871C62.743,57.892,58.955,59.487,53.531,59.487z M11.949,15.618  c-3.288,0-7.572,0.639-9.321,3.674c-1.741,3.034-0.368,7.86,3.771,13.246c4.375,5.683,11.272,11.399,19.429,16.088  c9.776,5.626,20.132,8.984,27.702,8.984h0.001c3.289,0,7.573-0.638,9.32-3.673c3.747-6.518-6.878-19.951-23.199-29.338  C29.875,18.976,19.518,15.618,11.949,15.618z"
   id="path12" />
<polygon
   fill="#27AAE1"
   points="33.199,19.939 18.328,27.934 32.032,35.884 46.481,27.909 "
   id="polygon14" />
<path
   fill="#4267B1"
   d="M32.032,36.81c-0.161,0-0.319-0.042-0.465-0.124l-13.706-7.947c-0.289-0.169-0.466-0.482-0.461-0.816  c0.006-0.338,0.193-0.644,0.489-0.804l14.87-7.995c0.284-0.155,0.636-0.148,0.914,0.024l13.283,7.968  c0.282,0.172,0.457,0.479,0.45,0.812c-0.006,0.331-0.187,0.637-0.481,0.793l-14.444,7.976C32.341,36.771,32.188,36.81,32.032,36.81z   M20.228,27.965l11.816,6.855l12.581-6.945l-11.453-6.868L20.228,27.965z"
   id="path16" />
<rect
   x="31.269"
   y="35.871"
   fill="#4267B1"
   width="1.875"
   height="16.548"
   id="rect18" />
<path
   fill="#4267B1"
   d="M100.629,48.541c-2.2,0.916-4.491,1.367-6.877,1.367c-3.713,0-6.736-1.244-9.078-3.741  c-2.338-2.485-3.509-5.739-3.509-9.756c0-4.405,1.269-7.934,3.805-10.593c2.537-2.659,5.759-3.986,9.671-3.986  c2.088,0,4.079,0.336,5.988,1.006v1.988c-1.909-0.859-3.912-1.291-6.022-1.291c-3.406,0-6.174,1.161-8.313,3.468  c-2.131,2.308-3.194,5.384-3.194,9.222c0,3.693,1.016,6.611,3.054,8.753c2.041,2.137,4.618,3.21,7.756,3.21  c2.494,0,4.736-0.488,6.721-1.458V48.541z"
   id="path20" />
<path
   fill="#4267B1"
   d="M106.667,49.434V22.291h12.683v1.723h-10.808v10.886h10.033v1.702h-10.033V47.73h11.43v1.703H106.667z"
   id="path22" />
<path
   fill="#4267B1"
   d="M139.942,49.434l-3.617-7.951c-0.743-1.638-1.491-2.736-2.235-3.3c-0.738-0.562-1.677-0.844-2.799-0.844  h-3.366v12.095h-1.877V22.291h7.532c2.403,0,4.284,0.645,5.652,1.939c1.367,1.291,2.058,3,2.058,5.118  c0,1.957-0.563,3.591-1.69,4.903c-1.119,1.315-2.691,2.159-4.71,2.536v0.078c1.072,0.431,2.118,1.734,3.141,3.919l4.032,8.648  H139.942z M127.925,24.014v11.621h4.672c2.071,0,3.716-0.54,4.933-1.629c1.217-1.082,1.828-2.573,1.828-4.462  c0-1.73-0.551-3.085-1.645-4.064c-1.102-0.977-2.677-1.466-4.722-1.466H127.925z"
   id="path24" />
<path
   fill="#4267B1"
   d="M166.764,49.434l-16.166-21.939c-0.323-0.439-0.612-0.883-0.867-1.327l-0.251-0.373h-0.074  c0.026,0.327,0.044,0.722,0.044,1.192v22.447h-1.874V22.291h1.433l16.053,21.75c0.359,0.477,0.742,1.058,1.158,1.743h0.095  c-0.062-0.884-0.095-1.645-0.095-2.275V22.291h1.874v27.143H166.764z"
   id="path26" />
<path
   fill="#4267B1"
   d="M175.135,49.434V22.291h7.722c2.35,0,4.212,0.572,5.585,1.723c1.375,1.146,2.061,2.64,2.061,4.484  c0,1.541-0.412,2.881-1.245,4.018c-0.833,1.132-1.984,1.939-3.449,2.419v0.077c1.834,0.216,3.3,0.906,4.396,2.074  c1.103,1.165,1.645,2.682,1.645,4.549c0,2.321-0.836,4.206-2.496,5.645c-1.67,1.436-3.769,2.154-6.302,2.154H175.135z   M178.313,25.169v8.763h3.253c1.746,0,3.116-0.421,4.113-1.26s1.49-2.023,1.49-3.548c0-2.639-1.731-3.955-5.202-3.955H178.313z   M178.313,36.788v9.774h4.318c1.867,0,3.31-0.444,4.342-1.326c1.029-0.887,1.54-2.098,1.54-3.641c0-3.206-2.177-4.808-6.546-4.808  H178.313z"
   id="path28" />
<path
   fill="#4267B1"
   d="M205.043,49.891c-2.862,0-5.152-0.904-6.857-2.719c-1.711-1.81-2.568-4.211-2.568-7.203  c0-3.256,0.891-5.799,2.67-7.626c1.779-1.831,4.183-2.745,7.212-2.745c2.889,0,5.149,0.891,6.766,2.67  c1.622,1.777,2.437,4.246,2.437,7.4c0,3.094-0.882,5.568-2.624,7.432C210.329,48.96,207.982,49.891,205.043,49.891z M205.271,32.205  c-1.991,0-3.568,0.684-4.736,2.037c-1.157,1.362-1.737,3.229-1.737,5.615c0,2.298,0.588,4.109,1.761,5.433  c1.169,1.323,2.745,1.989,4.713,1.989c2.005,0,3.552-0.654,4.623-1.953c1.082-1.298,1.622-3.147,1.622-5.547  c0-2.422-0.54-4.286-1.622-5.601C208.823,32.861,207.276,32.205,205.271,32.205z"
   id="path30" />
<path
   fill="#4267B1"
   d="M233.821,30.053l-6.516,9.805l6.399,9.576h-3.616l-3.806-6.281c-0.236-0.391-0.527-0.887-0.852-1.479h-0.076  c-0.062,0.117-0.357,0.604-0.887,1.479l-3.883,6.281h-3.578l6.61-9.504l-6.329-9.877h3.619l3.745,6.621  c0.274,0.497,0.546,1.004,0.813,1.518h0.079l4.842-8.139H233.821z"
   id="path32" />
<text
   xml:space="preserve"
   style="font-size:40px;font-style:normal;font-weight:normal;line-height:125%;letter-spacing:0px;word-spacing:0px;fill:#ff0000;fill-opacity:0.83555555;stroke:none;font-family:Sans"
   x="187.66933"
   y="68.624306"
   id="text3013"
   sodipodi:linespacing="125%"><tspan
     sodipodi:role="line"
     id="tspan3015"
     x="187.66933"
     y="68.624306"
     style="font-size:18px;font-style:italic;font-weight:bold;fill:#ff0000;fill-opacity:0.68888891;-inkscape-font-specification:Sans Bold Italic">beta</tspan></text>
</svg>